<?xml version="1.0" encoding="iso-8859-1"?>
<!-- Generator: Adobe Illustrator 19.0.0, SVG Export Plug-In . SVG Version: 6.00 Build 0)  -->
<svg version="1.1" id="Capa_1" xmlns="http://www.w3.org/2000/svg" xmlns:xlink="http://www.w3.org/1999/xlink" x="0px" y="0px"
	 viewBox="0 0 512 512" style="enable-background:new 0 0 512 512;" xml:space="preserve">
<circle style="fill:#FFCE00;" cx="256" cy="256" r="256"/>
<circle style="fill:#FFA81E;" cx="256" cy="256" r="225.61"/>
<circle style="fill:#FFE571;" cx="256" cy="256" r="202.95"/>
<circle style="fill:#FFCE00;" cx="256" cy="256" r="172.06"/>
<circle style="fill:#FFE571;" cx="256" cy="256" r="140.1"/>
<path style="fill:#FF9900;" d="M291.143,241.29c7.336-6.837,11.936-16.573,11.936-27.368c0-20.636-16.788-37.424-37.424-37.424h-2.5
	v-12.072c0-4.267-3.459-7.726-7.726-7.726s-7.726,3.459-7.726,7.726v12.072h-13.917v-21.971c0-4.267-3.459-7.726-7.726-7.726
	s-7.726,3.459-7.726,7.726v21.971h-17.046c-4.267,0-7.726,3.459-7.726,7.726s3.459,7.726,7.726,7.726h1.739l0.008,128.098h-1.747
	c-4.267,0-7.726,3.459-7.726,7.726s3.459,7.726,7.726,7.726h17.046v21.971c0,4.267,3.459,7.726,7.726,7.726s7.726-3.459,7.726-7.726
	V335.5h13.917v12.072c0,4.267,3.459,7.726,7.726,7.726c4.267,0,7.726-3.459,7.726-7.726V335.5h5.484
	c27.462,0,49.804-22.342,49.804-49.804C318.442,266.332,307.324,249.525,291.143,241.29z M265.654,191.951
	c12.115,0,21.971,9.856,21.971,21.971s-9.856,21.971-21.971,21.971h-47.175l-0.003-43.943L265.654,191.951L265.654,191.951z
	 M268.638,320.049h-50.153l-0.004-68.702h50.157c18.941,0,34.351,15.41,34.351,34.351
	C302.989,304.639,287.579,320.049,268.638,320.049z"/>
<g>
</g>
<g>
</g>
<g>
</g>
<g>
</g>
<g>
</g>
<g>
</g>
<g>
</g>
<g>
</g>
<g>
</g>
<g>
</g>
<g>
</g>
<g>
</g>
<g>
</g>
<g>
</g>
<g>
</g>
</svg>
