<?xml version="1.0" encoding="utf-8"?>
<!-- Generator: Adobe Illustrator 18.1.1, SVG Export Plug-In . SVG Version: 6.00 Build 0)  -->
<!DOCTYPE svg PUBLIC "-//W3C//DTD SVG 1.1//EN" "http://www.w3.org/Graphics/SVG/1.1/DTD/svg11.dtd">
<svg version="1.1" id="Layer_7" xmlns="http://www.w3.org/2000/svg" xmlns:xlink="http://www.w3.org/1999/xlink" x="0px" y="0px"
	 viewBox="95.1 152.4 591.7 327.2" enable-background="new 95.1 152.4 591.7 327.2" xml:space="preserve">
<g>
	<g>
		<path fill="#FFFFFF" d="M587.8,351.1L569,363.3c-0.4,0.2-1,0.2-1.4,0c-0.4-0.2-0.8-0.6-0.8-1.2l-0.2-22.4l8.6-16.1v-5.3
			l-19.4,35.9c-0.2,0.4-0.4,0.8-0.4,1.4l0.2,26.7l-6.7,12.4c-0.4,0.6-0.2,1.4,0.6,1.8c0.6,0.4,1.4,0.2,1.8-0.6l6.7-12.4l22.4-14.5
			c0.4-0.2,0.8-0.6,1-1l15.9-29.4l-4.3,2.9L587.8,351.1z"/>
		<path fill="#FFFFFF" d="M614.9,300.9l-18.8,12.2c-0.4,0.2-1,0.2-1.4,0c-0.4-0.2-0.8-0.6-0.8-1.2l-0.2-22.4l8.6-16.1v-5.3
			L582.9,304c-0.2,0.4-0.4,0.8-0.4,1.4l0.2,26.7l-6.7,12.4c-0.4,0.6-0.2,1.4,0.6,1.8c0.6,0.4,1.4,0.2,1.8-0.6l6.7-12.4l22.4-14.5
			c0.4-0.2,0.8-0.6,1-1l15.9-29.4l-4.3,2.9L614.9,300.9z"/>
		<path fill="#FFFFFF" d="M642,250.7l-18.8,12.2c-0.4,0.2-1,0.2-1.4,0c-0.4-0.2-0.8-0.6-0.8-1.2l-0.2-22.4l8.6-16.1v-5.3L610,253.8
			c-0.2,0.4-0.4,0.8-0.4,1.4l0.2,26.7l-6.7,12.4c-0.4,0.6-0.2,1.4,0.6,1.8c0.6,0.4,1.4,0.2,1.8-0.6l6.7-12.4l22.4-14.5
			c0.4-0.2,0.8-0.6,1-1l15.9-29.4l-4.3,2.9L642,250.7z"/>
		<path fill="#FFFFFF" d="M672.6,194c-16.1,5.3-27.5,12.7-35.3,19.8l0.2,17.7l-6.7,12.4c-0.4,0.6-0.2,1.4,0.6,1.8
			c0.6,0.4,1.4,0.2,1.8-0.6l6.7-12.4l14.5-9.4l-0.2-18.4c5.3-2.9,11-5.7,17.1-7.8L672.6,194z"/>
		<path fill="#FFFFFF" d="M176.9,351.1l-18.8,12.2c-0.4,0.2-1,0.2-1.4,0c-0.4-0.2-0.8-0.6-0.8-1.2l-0.2-22.4l5.1-9.6v-5.3
			l-15.9,29.4c-0.2,0.4-0.4,0.8-0.4,1.4l0.2,26.7l-6.7,12.4c-0.4,0.6-0.2,1.4,0.6,1.8c0.6,0.4,1.4,0.2,1.8-0.6l6.7-12.4l22.4-14.5
			c0.4-0.2,0.8-0.6,1-1l21.6-39.8l-4.3,2.9L176.9,351.1z"/>
		<path fill="#FFFFFF" d="M213.8,282.7l-10.8,20l-18.8,12.2c-0.4,0.2-1,0.2-1.4,0c-0.4-0.2-0.8-0.6-0.8-1.2l-0.2-22.4l5.1-9.4v-5.3
			L171,306c-0.2,0.4-0.4,0.8-0.4,1.4l0.2,26.7l-6.7,12.4c-0.4,0.6-0.2,1.4,0.6,1.8c0.6,0.4,1.4,0.2,1.8-0.6l6.7-12.4l22.4-14.5
			c0.4-0.2,0.8-0.6,1-1l21.6-39.8L213.8,282.7z"/>
		<path fill="#FFFFFF" d="M191,299.7c0.6,0.4,1.4,0.2,1.8-0.6l6.7-12.4l22.4-14.5c0.4-0.2,0.8-0.6,1-1l21.6-39.8l-4.3,2.9l-10.8,20
			l-18.8,12.2c-0.4,0.2-1,0.2-1.4,0c-0.4-0.2-0.8-0.6-0.8-1.2l-0.2-22.4l5.1-9.6v-5.3l-15.9,29.4c-0.2,0.4-0.4,0.8-0.4,1.4l0.2,26.7
			l-6.7,12.4C190.3,298.7,190.4,299.5,191,299.7z"/>
		<path fill="#FFFFFF" d="M216.5,247.9c0.6,0.4,1.4,0.2,1.8-0.6L225,235l14.5-9.4l-0.2-18c4.9-2.9,10.4-5.7,16.9-8.2l1.8-3.3
			c-16.3,5.7-27.7,13.5-35.3,21.2l0.2,16.3l-6.7,12.4C215.8,246.8,215.9,247.6,216.5,247.9z"/>
		<path fill="#FFFFFF" d="M531.9,161.8c0,0-9.8,17.3-29,17.3c-25.7,0-30.6-15.5-72.8-15.5c-39.8,0-90.6,20.8-90.6,70.8
			c0,56.3,58.6,96.1,58.6,142.2c0,24.9-21.2,60.4-64.7,60.4s-58.6-33.1-56.5-44.5h-26.7l-42,77.7h26.3c10-18.6,18.4-34.1,39.2-34.1
			c25.7,0,36.9,13.7,70.8,13.7c73.9,0,122.8-52.6,122.8-101c0-52.2-57.3-93.6-57.3-128.3c0-23.9,20-38.8,43.7-38.8
			c46.5,0,49,38.8,49,38.8H528l31.6-58.6L531.9,161.8L531.9,161.8z"/>
	</g>
	<g>
		<path fill="#C1C3C5" d="M385.6,358.4c-1-2.9-2.2-5.9-3.7-9H268.1l4.9-9h-72l14.1-26.1h146.1c-2-2.9-3.7-5.9-5.7-9h-87.7l4.9-9
			h-48.1l14.1-26.1h98.7c-1.2-2.9-2.2-5.9-2.9-9h-65.9l4.9-9h-25.3l17.5-32.4c0.4-0.8,11.4-19.2,44.5-19.2h27.7
			c1.6-3.1,3.3-5.9,5.5-8.6h-33.1c-39.2,0-52.2,23.9-52.2,23.9l-114,212h76.5l4.7-8.6h-66.7l32.8-60.6h194.2V358.4z"/>
		<path fill="#C1C3C5" d="M553.9,192.2l-4.7,8.6h73.9l-27.9,51.8H433.1c2,2.9,3.9,5.9,5.9,9h79.8l-4.9,9h71.6l-14.1,26.1H460.9
			c1.6,2.9,3.1,5.9,4.5,9h52.8l-4.9,9h48.2l-14.1,26.1h-71.8c0.2,2.7,0.4,5.5,0.4,8.2c0,0.2,0,0.6,0,0.8h43.5l-4.9,9h22.9
			l-22.4,41.4c-0.4,0.8-11.4,19.4-44.5,19.4H445c-2.9,2.9-6.3,5.9-9.6,8.6h35.3c39.2,0,52.2-23.9,52.2-23.9l114.9-212.2H553.9z"/>
	</g>
	<g>
		<path fill="#006241" d="M268.7,261.7h65.7c-2.5-8.6-4.1-17.8-4.1-27.3c0-12.7,2.9-23.9,7.8-33.3h-27.7
			c-33.1,0-44.1,18.6-44.5,19.2l-17.5,32.4h25.3L268.7,261.7z"/>
		<path fill="#006241" d="M549.2,200.9l-15.7,29h-39.4c-0.8-9-1-38.8-40.4-38.8c-23.9,0-34.5,15.5-34.5,29.4c0,9,5.9,19.8,13.7,32.2
			h162.2l27.9-51.8H549.2z"/>
		<path fill="#006241" d="M268.1,349.5h113.8c-5.3-11.2-12.9-22.8-20.6-34.9H215.2L201,340.7h72L268.1,349.5z"/>
		<path fill="#006241" d="M518.6,305.6h-52.8c5.3,11.2,9.2,22.8,10.6,34.9h71.8l14.1-26.1h-48.2L518.6,305.6z"/>
		<path fill="#006241" d="M519,261.7h-79.8c7.3,10.8,15.3,22.6,22.2,34.9h110.4l14.1-26.1h-71.6L519,261.7z"/>
		<path fill="#006241" d="M268.1,305.6h87.7c-6.9-11.2-13.3-22.8-18.2-34.9h-98.7l-14.1,26.1h48.1L268.1,305.6z"/>
		<path fill="#006241" d="M520.4,349.5h-43.5c-0.2,25.7-11.8,50.2-31,69.6h25.7c33.1,0,44.1-18.6,44.5-19.4l22.4-41.4h-22.9
			L520.4,349.5z"/>
		<path fill="#006241" d="M191.4,358.4L158.7,419h66.7l19.4-35.9h43.5c-8,22.9,13.9,44.5,45.3,44.5c42.2,0,55.3-35.7,55.3-51
			c0-6.1-1.4-12.2-3.3-18.2L191.4,358.4L191.4,358.4z"/>
	</g>
	<g>
		<path d="M576.2,388.6l110.6-205H558.8l16.9-31.2h-48.8c0,0-7.8,17.3-23.7,17.3c-21.6,0-31.8-15.5-72.8-15.5
			c-27.7,0-59,9.4-79.2,29.4h-42c-77.7,0-99.6,41-103.4,47.9L95.1,436.6h120.8l-23.1,43h47.5l5.1-9.4c5.1-8.6,12.4-24.9,28.6-24.9
			c21.4,0,37.7,13.7,70.8,13.7c30.2,0,57.7-8.6,79.6-22.8h48.6C550.4,436.4,572.5,395.4,576.2,388.6 M608.6,318
			c-0.2,0.4-0.6,0.8-1,1l-22.4,14.5l-6.7,12.4c-0.4,0.6-1.2,0.8-1.8,0.6c-0.6-0.4-0.8-1.2-0.6-1.8l6.7-12.4l-0.2-26.7
			c0-0.4,0.2-1,0.4-1.4l19.4-35.9v5.3l-8.6,16.1l0.2,22.4c0,0.6,0.2,1,0.8,1.2c0.4,0.2,1,0.2,1.4,0l18.8-12.2l5.1-9.6l4.3-2.9
			L608.6,318 M635.7,267.6c-0.2,0.4-0.6,0.8-1,1l-22.4,14.5l-6.7,12.4c-0.4,0.6-1.2,0.8-1.8,0.6c-0.6-0.4-0.8-1.2-0.6-1.8l6.7-12.4
			l-0.2-26.7c0-0.4,0.2-1,0.4-1.4l19.4-35.9v5.3l-8.6,16.1l0.2,22.4c0,0.6,0.2,1,0.8,1.2c0.4,0.2,1,0.2,1.4,0l18.8-12.2l5.1-9.6
			l4.3-2.9L635.7,267.6 M670.8,197.3c-6.1,2.2-11.8,4.7-17.1,7.8l0.2,18.4l-14.5,9.4l-6.7,12.4c-0.4,0.6-1.2,0.8-1.8,0.6
			c-0.6-0.4-0.8-1.2-0.6-1.8l6.7-12.4l-0.2-17.7c8-7.1,19.4-14.5,35.3-19.8L670.8,197.3 M215.9,246.2l6.7-12.4l-0.2-16.3
			c7.6-7.6,19-15.5,35.3-21.2l-1.8,3.3c-6.5,2.4-12.2,5.3-16.9,8.2l0.2,18l-14.5,9.4l-6.7,12.4c-0.4,0.6-1.2,0.8-1.8,0.6
			C215.9,247.6,215.8,246.8,215.9,246.2 M190.4,298l6.7-12.4l-0.2-26.7c0-0.4,0.2-1,0.4-1.4l15.9-29.4v5.3l-5.1,9.6l0.2,22.4
			c0,0.6,0.2,1,0.8,1.2c0.4,0.2,1,0.2,1.4,0l18.8-12.2l10.8-20l4.3-2.9l-21.6,39.8c-0.2,0.4-0.6,0.8-1,1l-22.4,14.5l-6.7,12.4
			c-0.4,0.6-1.2,0.8-1.8,0.6C190.4,299.5,190.3,298.7,190.4,298 M164.4,346.4L171,334l-0.2-26.7c0-0.4,0.2-1,0.4-1.4l15.9-29.4v5.3
			l-5.1,9.4l0.2,22.4c0,0.6,0.2,1,0.8,1.2c0.4,0.2,1,0.2,1.4,0l18.8-12.2l10.8-20l4.3-2.9l-21.6,39.8c-0.2,0.4-0.6,0.8-1,1
			L173.4,335l-6.7,12.4c-0.4,0.6-1.2,0.8-1.8,0.6C164.4,347.8,164.2,347,164.4,346.4 M138.9,396.4c-0.6-0.4-0.8-1.2-0.6-1.8
			l6.7-12.4l-0.2-26.7c0-0.4,0.2-1,0.4-1.4l15.9-29.4v5.3l-5.1,9.6l0.2,22.4c0,0.4,0.2,1,0.8,1.2c0.4,0.2,1,0.2,1.4,0l18.8-12.2
			l10.8-20l4.3-2.9L170.6,368c-0.2,0.4-0.6,0.8-1,1l-22.6,14.7l-6.7,12.4C140.2,396.6,139.5,396.8,138.9,396.4 M144.2,427.8
			l114.2-211.6c0,0,12.9-23.9,52.2-23.9h33.1c-2,2.7-3.7,5.7-5.5,8.6c-4.9,9.6-7.8,20.6-7.8,33.3c0,9.4,1.6,18.6,4.1,27.3
			c1,2.9,2,6.1,2.9,9c4.7,12.4,11.4,23.9,18.2,34.9c2,2.9,3.7,6.1,5.7,9c7.8,12.2,15.3,23.7,20.6,34.9c1.4,2.9,2.5,5.9,3.7,9
			c2.2,6.1,3.3,12.2,3.3,18.2c0,15.3-13.1,51-55.3,51c-31.4,0-53.3-21.8-45.3-44.5h-43.5L225.4,419l-4.7,8.6L144.2,427.8
			 M344.8,449.8c-33.9,0-45.1-13.7-70.8-13.7c-20.8,0-29.2,15.5-39.2,34.1h-26.3l42-77.7h26.7c-2,11.6,12.9,44.5,56.5,44.5
			s64.7-35.7,64.7-60.4c0-46.3-58.6-86.1-58.6-142.2c0-50,50.8-70.8,90.6-70.8c42.2,0,47.1,15.5,72.8,15.5c19.2,0,29-17.3,29-17.3
			H560l-31.6,58.6h-25.1c0,0-2.5-38.8-49-38.8c-23.7,0-43.7,14.9-43.7,38.8c0,34.5,57.3,75.9,57.3,128.3
			C467.4,397.4,418.6,449.8,344.8,449.8 M471.5,427.8h-35.3c3.3-2.7,6.5-5.7,9.6-8.6c19.2-19.4,30.8-43.9,31-69.6c0-0.2,0-0.6,0-0.8
			c0-2.7-0.2-5.5-0.4-8.2c-1.2-12.2-5.3-23.7-10.6-34.9c-1.4-2.9-2.9-6.1-4.5-9c-6.9-12.6-14.9-24.1-22.2-34.9c-2-3.1-4.1-6.1-5.9-9
			c-7.8-12.4-13.7-23.1-13.7-32.2c0-13.9,10.6-29.4,34.5-29.4c39.4,0,39.6,29.8,40.4,38.8h39.4l15.7-29l4.7-8.6H638L523.7,403.9
			C523.7,403.9,510.9,427.8,471.5,427.8 M551.5,396c-0.4,0.6-1.2,0.8-1.8,0.6c-0.6-0.4-0.8-1.2-0.6-1.8l6.7-12.4l-0.2-26.7
			c0-0.4,0.2-1,0.4-1.4l19.4-35.9v5.3l-8.6,16.1l0.2,22.4c0,0.4,0.2,1,0.8,1.2c0.4,0.2,1,0.2,1.4,0l18.8-12.2l5.1-9.6l4.3-2.9
			l-15.9,29.4c-0.2,0.4-0.6,0.8-1,1l-22.4,14.5L551.5,396z"/>
		<path d="M571.3,416.4c-5.5,0-10,4.5-10,10c0,5.5,4.5,10,10,10c5.5,0,10-4.5,10-10C581.3,420.9,577,416.4,571.3,416.4 M571.3,434.3
			c-4.3,0-7.8-3.5-7.8-7.8s3.5-7.8,7.8-7.8c4.3,0,7.8,3.5,7.8,7.8C579.4,430.7,575.7,434.3,571.3,434.3z"/>
		<path d="M575.5,424.1c0-2-1.6-3.3-3.3-3.3h-4.9v11.6h2.2v-4.7h1.6l2.2,4.7h2.4l-2.4-4.9C574.5,426.8,575.5,425.6,575.5,424.1
			 M572.1,425.4h-2.7v-2.5h2.7c0.8,0,1.2,0.6,1.2,1.2C573.3,424.9,572.7,425.4,572.1,425.4z"/>
	</g>
</g>
</svg>
