<?xml version="1.0" encoding="iso-8859-1"?>
<!-- Generator: Adobe Illustrator 19.0.0, SVG Export Plug-In . SVG Version: 6.00 Build 0)  -->
<svg version="1.1" id="Layer_1" xmlns="http://www.w3.org/2000/svg" xmlns:xlink="http://www.w3.org/1999/xlink" x="0px" y="0px"
	 viewBox="0 0 512 512" style="enable-background:new 0 0 512 512;" xml:space="preserve">
<path style="fill:#FFAC55;" d="M273.163,0h-84.022c-34.686,0-62.806,28.119-62.806,62.806v81.963h209.632V62.806
	C335.968,28.119,307.849,0,273.163,0z"/>
<path style="fill:#FFCE6E;" d="M163.163,107.941V62.806c0-14.324,11.654-25.979,25.979-25.979h84.022
	c14.324,0,25.979,11.654,25.979,25.979v45.136H163.163V107.941z"/>
<path style="opacity:0.1;enable-background:new    ;" d="M238.244,0h-49.102c-34.687,0-62.806,28.119-62.806,62.806v81.963h49.102
	V62.806C175.438,28.119,203.558,0,238.244,0z"/>
<g>
	<path style="fill:#5B5D6E;" d="M333.514,159.469L333.514,159.469v112.288h79.148v-33.14
		C412.661,194.905,377.225,159.469,333.514,159.469z"/>
	<path style="fill:#5B5D6E;" d="M347.53,427.895c-10.169,0-18.413-8.244-18.413-18.413c0-10.169,8.244-18.413,18.413-18.413
		c30.911,0,56.059-25.147,56.059-56.058v-28.542c0-10.169,8.244-18.413,18.413-18.413c10.169,0,18.413,8.244,18.413,18.413v28.542
		C440.416,386.228,398.748,427.895,347.53,427.895z"/>
</g>
<path style="fill:#FFAC55;" d="M380.776,227.59h-36.556v100.966h96.195v-41.325C440.416,254.292,413.714,227.59,380.776,227.59z"/>
<path style="fill:#FF462E;" d="M231.152,80.977L231.152,80.977c-76.734,0-138.939,62.205-138.939,138.938V490.26H370.09V219.915
	C370.091,143.182,307.886,80.977,231.152,80.977z"/>
<path style="opacity:0.1;enable-background:new    ;" d="M249.566,82.194c-6.025-0.798-12.17-1.217-18.413-1.217l0,0
	c-76.734,0-138.938,62.204-138.938,138.938V490.26h36.827V219.915C129.04,149.425,181.537,91.203,249.566,82.194z"/>
<g>
	<rect x="153.347" y="171.969" style="fill:#FFAC55;" width="155.606" height="93.651"/>
	<circle style="fill:#FFAC55;" cx="231.15" cy="360.105" r="53.632"/>
</g>
<path style="opacity:0.1;enable-background:new    ;" d="M195.934,360.102c0-26.479,19.194-48.46,44.425-52.828
	c-2.993-0.518-6.065-0.804-9.207-0.804c-29.62,0-53.632,24.012-53.632,53.632c0,29.62,24.012,53.632,53.632,53.632
	c3.141,0,6.214-0.285,9.207-0.804C215.128,408.562,195.934,386.58,195.934,360.102z"/>
<path style="fill:#5B5D6E;" d="M332.583,453.863H129.721c-32.108,0-58.137,26.029-58.137,58.137l0,0h319.137l0,0
	C390.721,479.892,364.691,453.863,332.583,453.863z"/>
<path style="opacity:0.1;enable-background:new    ;" d="M166.548,453.863h-36.827c-32.108,0-58.137,26.029-58.137,58.137l0,0
	h36.827l0,0C108.411,479.892,134.44,453.863,166.548,453.863z"/>
<g>
</g>
<g>
</g>
<g>
</g>
<g>
</g>
<g>
</g>
<g>
</g>
<g>
</g>
<g>
</g>
<g>
</g>
<g>
</g>
<g>
</g>
<g>
</g>
<g>
</g>
<g>
</g>
<g>
</g>
</svg>
