<?xml version="1.0" encoding="iso-8859-1"?>
<!-- Generator: Adobe Illustrator 19.0.0, SVG Export Plug-In . SVG Version: 6.00 Build 0)  -->
<svg version="1.1" id="Layer_1" xmlns="http://www.w3.org/2000/svg" xmlns:xlink="http://www.w3.org/1999/xlink" x="0px" y="0px"
	 viewBox="0 0 512 512" style="enable-background:new 0 0 512 512;" xml:space="preserve">
<path style="fill:#5B5D6E;" d="M166.568,114.212c-6.508,0.5-13.197-1.605-18.37-6.384L96.971,60.515
	c-7.723-7.132-18.163-10.762-28.644-9.957l-40.418,3.101C14.514,54.687,2.823,44.663,1.795,31.269S10.793,6.184,24.186,5.157
	l40.418-3.101c23.921-1.836,47.748,6.446,65.373,22.723l51.228,47.314c9.868,9.114,10.48,24.503,1.365,34.371
	C178.234,111.158,172.475,113.758,166.568,114.212z"/>
<path style="opacity:0.1;enable-background:new    ;" d="M181.205,72.092l-46.523-42.968l-30.34,38.2l43.855,40.504
	c5.174,4.778,11.861,6.882,18.37,6.384c5.907-0.454,11.665-3.054,16.002-7.748C191.684,96.595,191.074,81.207,181.205,72.092z"/>
<polygon style="fill:#464655;" points="163.265,142.189 217.416,74.011 168.769,35.094 114.619,103.271 "/>
<g>
	<path style="fill:#FF462E;" d="M455.543,0H266.709c-16.695,0-32.478,7.619-42.861,20.693L106.622,168.286
		c-7.689,9.681-11.875,21.679-11.875,34.043v254.935c0,30.23,24.506,54.736,54.736,54.736h306.058
		c30.23,0,54.736-24.506,54.736-54.736V54.736C510.277,24.506,485.771,0,455.543,0z M461.655,129.105
		c0,11.596-9.4,20.996-20.996,20.996h-141.37c-11.596,0-20.996-9.4-20.996-20.996V57.129l0,0c0,12.658,10.262,22.92,22.92,22.92
		s22.92-10.262,22.92-22.92c0,12.658,10.262,22.92,22.92,22.92c12.658,0,22.92-10.262,22.92-22.92
		c0,12.658,10.262,22.92,22.92,22.92c12.658,0,22.92-10.262,22.92-22.92c0,12.658,10.262,22.92,22.92,22.92
		c12.658,0,22.923-10.262,22.923-22.92l0,0V129.105z"/>
	<path style="fill:#FF462E;" d="M486.696,129.105V57.129l0,0c0,12.658-10.262,22.92-22.92,22.92c-0.716,0-1.422-0.043-2.121-0.107
		v49.163c0,11.596-9.4,20.996-20.996,20.996H465.7C477.296,150.101,486.696,140.701,486.696,129.105z"/>
</g>
<path style="opacity:0.1;enable-background:new    ;" d="M119.79,457.264V202.328c0-12.362,4.185-24.362,11.875-34.043
	L248.89,20.692C259.274,7.619,275.056,0,291.751,0H266.71c-16.695,0-32.478,7.619-42.861,20.693L106.624,168.286
	c-7.689,9.681-11.875,21.679-11.875,34.043v254.935c0,30.23,24.506,54.736,54.736,54.736h25.041
	C144.297,512,119.79,487.494,119.79,457.264z"/>
<g>
	<path style="fill:#FF462E;" d="M405.415,76.313c-6.257-4.092-10.399-11.15-10.399-19.185c0,8.91-5.095,16.615-12.52,20.407
		c3.124,1.596,6.651,2.513,10.399,2.513C397.518,80.049,401.814,78.669,405.415,76.313z"/>
	<path style="fill:#FF462E;" d="M359.575,76.313c-6.257-4.092-10.399-11.15-10.399-19.185c0,8.91-5.095,16.615-12.52,20.407
		c3.124,1.596,6.651,2.513,10.399,2.513C351.678,80.049,355.974,78.669,359.575,76.313z"/>
	<path style="fill:#FF462E;" d="M451.256,76.313c-6.257-4.092-10.399-11.15-10.399-19.185c0,8.91-5.094,16.615-12.52,20.407
		c3.124,1.596,6.651,2.513,10.399,2.513C443.358,80.049,447.655,78.669,451.256,76.313z"/>
	<path style="fill:#FF462E;" d="M303.335,57.129L303.335,57.129v22.813c3.816-0.35,7.357-1.638,10.399-3.629
		C307.477,72.22,303.335,65.163,303.335,57.129z"/>
	<path style="fill:#FF462E;" d="M359.165,76.561c-6.482-4.049-10.808-11.226-10.808-19.433c0,8.749-4.905,16.348-12.112,20.21
		c3.22,1.726,6.898,2.71,10.808,2.71C351.507,80.049,355.648,78.759,359.165,76.561z"/>
	<path style="fill:#FF462E;" d="M302.518,57.129L302.518,57.129v22.854c3.956-0.223,7.639-1.441,10.808-3.421
		C306.844,72.512,302.518,65.335,302.518,57.129z"/>
	<path style="fill:#FF462E;" d="M450.846,76.561c-6.482-4.049-10.808-11.226-10.808-19.433c0,8.749-4.905,16.348-12.112,20.21
		c3.22,1.726,6.898,2.71,10.808,2.71C443.188,80.049,447.329,78.759,450.846,76.561z"/>
	<path style="fill:#FF462E;" d="M485.878,129.105V57.129l0,0c0,12.658-10.262,22.92-22.92,22.92c-0.44,0-0.87-0.041-1.304-0.066
		v49.122c0,11.596-9.4,20.996-20.996,20.996h24.224C476.477,150.101,485.878,140.701,485.878,129.105z"/>
	<path style="fill:#FF462E;" d="M405.006,76.561c-6.482-4.049-10.808-11.226-10.808-19.433c0,8.749-4.905,16.348-12.112,20.21
		c3.22,1.726,6.898,2.71,10.808,2.71C397.347,80.049,401.489,78.759,405.006,76.561z"/>
</g>
<path style="fill:#FFCE6E;" d="M427.144,204.445H179.098c-17.702,0-32.054,14.352-32.053,32.054l0.006,189.806
	c0,17.702,14.351,32.052,32.053,32.052h248.034c17.702,0,32.053-14.351,32.053-32.052l0.006-189.806
	C459.198,218.797,444.848,204.445,427.144,204.445z"/>
<path style="opacity:0.1;enable-background:new    ;" d="M179.098,225.12h248.046c17.695,0,32.04,14.339,32.053,32.03v-20.649
	c0-17.702-14.351-32.054-32.053-32.054H179.098c-17.702,0-32.054,14.352-32.053,32.054v20.649
	C147.058,239.458,161.404,225.12,179.098,225.12z"/>
<path style="fill:#FF462E;" d="M403.85,385.36l-66.333-53.957l66.333-53.959c9.109-7.409,10.486-20.801,3.076-29.91
	c-7.408-9.109-20.8-10.486-29.909-3.077l-73.193,59.538l-74.598-60.68c-9.108-7.41-22.5-6.033-29.91,3.077
	c-7.41,9.109-6.032,22.5,3.077,29.909l67.738,55.101l-67.738,55.099c-9.109,7.41-10.487,20.801-3.077,29.911
	c4.202,5.166,10.329,7.845,16.506,7.845c4.715,0,9.462-1.562,13.405-4.769l74.598-60.68l73.192,59.538
	c3.944,3.207,8.688,4.769,13.405,4.769c6.177,0,12.304-2.68,16.506-7.845C414.337,406.161,412.959,392.77,403.85,385.36z"/>
<g>
</g>
<g>
</g>
<g>
</g>
<g>
</g>
<g>
</g>
<g>
</g>
<g>
</g>
<g>
</g>
<g>
</g>
<g>
</g>
<g>
</g>
<g>
</g>
<g>
</g>
<g>
</g>
<g>
</g>
</svg>
